<svg width="1320" height="900" viewBox="0 0 1320 900" fill="none" xmlns="http://www.w3.org/2000/svg">
  <defs>
    <radialGradient id="glow" cx="0" cy="0" r="1" gradientUnits="userSpaceOnUse" gradientTransform="translate(1030 170) rotate(136) scale(560 420)">
      <stop stop-color="#B6F4D3" stop-opacity=".72"/>
      <stop offset=".48" stop-color="#D7C7FF" stop-opacity=".28"/>
      <stop offset="1" stop-color="#0B0B0A" stop-opacity="0"/>
    </radialGradient>
    <filter id="soft" x="-20%" y="-20%" width="140%" height="140%"><feGaussianBlur stdDeviation="18"/></filter>
  </defs>
  <rect width="1320" height="900" rx="44" fill="#0E0E0C"/>
  <rect width="1320" height="900" rx="44" fill="url(#glow)"/>
  <circle cx="190" cy="705" r="190" fill="#C96442" opacity=".16" filter="url(#soft)"/>
  <rect x="56" y="54" width="1208" height="64" rx="22" fill="#171714" stroke="#34322D"/>
  <rect x="88" y="75" width="152" height="21" rx="10.5" fill="#F6F0E5"/>
  <rect x="890" y="75" width="74" height="21" rx="10.5" fill="#6D685F"/>
  <rect x="986" y="75" width="120" height="21" rx="10.5" fill="#6D685F"/>
  <rect x="1132" y="68" width="96" height="34" rx="17" fill="#E7D9C9"/>

  <text x="84" y="225" font-family="Inter, Arial" font-size="84" font-weight="800" letter-spacing="-5" fill="#F7F1E7">A clean path</text>
  <text x="84" y="303" font-family="Inter, Arial" font-size="74" font-weight="800" letter-spacing="-4" fill="#F7F1E7">from review to repair</text>
  <rect x="88" y="350" width="516" height="24" rx="12" fill="#CFC5B7" opacity=".84"/>
  <rect x="88" y="392" width="430" height="24" rx="12" fill="#CFC5B7" opacity=".52"/>
  <rect x="88" y="452" width="188" height="58" rx="16" fill="#E7D9C9"/>
  <rect x="300" y="452" width="154" height="58" rx="16" fill="#20201D" stroke="#49463D"/>

  <g opacity=".98">
    <rect x="690" y="160" width="494" height="612" rx="32" fill="#151513" stroke="#34322D" stroke-width="2"/>
    <rect x="730" y="204" width="250" height="30" rx="15" fill="#F6F0E5"/>
    <rect x="730" y="258" width="362" height="18" rx="9" fill="#A9A197"/>
    <rect x="730" y="292" width="270" height="18" rx="9" fill="#736E66"/>
    <rect x="730" y="338" width="414" height="116" rx="26" fill="#1F1F1B" stroke="#3B3830"/>
    <rect x="766" y="374" width="202" height="18" rx="9" fill="#F6F0E5"/>
    <rect x="766" y="408" width="310" height="16" rx="8" fill="#8E867D"/>
    <rect x="730" y="490" width="414" height="78" rx="24" fill="#E7D9C9"/>
    <rect x="762" y="520" width="164" height="18" rx="9" fill="#161614"/>
    <rect x="730" y="602" width="194" height="108" rx="24" fill="#1F1F1B" stroke="#3B3830"/>
    <rect x="950" y="602" width="194" height="108" rx="24" fill="#1F1F1B" stroke="#3B3830"/>
    <rect x="762" y="640" width="102" height="18" rx="9" fill="#A7E7C1"/>
    <rect x="982" y="640" width="108" height="18" rx="9" fill="#D8C9FF"/>
  </g>
  <g>
    <rect x="94" y="660" width="338" height="102" rx="24" fill="#102018" stroke="#245B3E"/>
    <circle cx="138" cy="711" r="16" fill="#77E0A4"/>
    <text x="174" y="706" font-family="JetBrains Mono, monospace" font-size="18" fill="#DFFFEA">PASS: task flow clear</text>
    <text x="174" y="735" font-family="Inter, Arial" font-size="17" fill="#B9DDC6">One primary path, mobile-safe layout</text>
  </g>
</svg>
