<svg width="1320" height="900" viewBox="0 0 1320 900" fill="none" xmlns="http://www.w3.org/2000/svg">
  <defs>
    <linearGradient id="bg" x1="0" y1="0" x2="1320" y2="900" gradientUnits="userSpaceOnUse">
      <stop stop-color="#faf7ee"/>
      <stop offset="1" stop-color="#efe8d9"/>
    </linearGradient>
    <filter id="soft" x="-20%" y="-20%" width="140%" height="140%"><feGaussianBlur stdDeviation="20"/></filter>
  </defs>
  <rect width="1320" height="900" rx="44" fill="url(#bg)"/>
  <circle cx="1110" cy="118" r="160" fill="#E6A77C" opacity=".4" filter="url(#soft)"/>
  <circle cx="210" cy="720" r="170" fill="#8AB8A3" opacity=".32" filter="url(#soft)"/>
  <rect x="56" y="54" width="1208" height="64" rx="22" fill="#161614" opacity=".9"/>
  <rect x="88" y="75" width="152" height="21" rx="10.5" fill="#F8F3E7"/>
  <rect x="888" y="75" width="74" height="21" rx="10.5" fill="#746E63"/>
  <rect x="986" y="75" width="120" height="21" rx="10.5" fill="#746E63"/>
  <rect x="1132" y="68" width="96" height="34" rx="17" fill="#C96442"/>

  <text x="84" y="218" font-family="Inter, Arial" font-size="88" font-weight="800" letter-spacing="-5" fill="#171514">AI dashboard</text>
  <text x="84" y="300" font-family="Inter, Arial" font-size="72" font-weight="800" letter-spacing="-4" fill="#171514">that forgot the job</text>
  <rect x="88" y="344" width="460" height="24" rx="12" fill="#777064"/>
  <rect x="88" y="386" width="540" height="24" rx="12" fill="#777064" opacity=".65"/>
  <rect x="88" y="434" width="168" height="58" rx="16" fill="#141413"/>
  <rect x="276" y="434" width="168" height="58" rx="16" fill="#C96442"/>
  <rect x="464" y="434" width="168" height="58" rx="16" fill="#2F6F5D"/>

  <g opacity=".96">
    <rect x="690" y="168" width="494" height="606" rx="32" fill="#fffaf0" stroke="#D9CDBB" stroke-width="2"/>
    <rect x="730" y="208" width="210" height="28" rx="14" fill="#161614"/>
    <rect x="730" y="258" width="372" height="20" rx="10" fill="#BFB4A5"/>
    <rect x="730" y="294" width="330" height="20" rx="10" fill="#BFB4A5" opacity=".7"/>
    <rect x="730" y="338" width="414" height="128" rx="22" fill="#F0E7D7"/>
    <rect x="766" y="374" width="284" height="18" rx="9" fill="#A79C8F"/>
    <rect x="766" y="408" width="330" height="18" rx="9" fill="#A79C8F" opacity=".68"/>
    <rect x="730" y="500" width="184" height="94" rx="22" fill="#161614"/>
    <rect x="940" y="500" width="184" height="94" rx="22" fill="#C96442"/>
    <rect x="730" y="626" width="414" height="84" rx="22" fill="#EEE4D4"/>
    <path d="M730 736H1170" stroke="#C96442" stroke-width="12" stroke-linecap="round" stroke-dasharray="1 28"/>
  </g>
  <g>
    <rect x="94" y="660" width="338" height="102" rx="24" fill="#2B1712"/>
    <circle cx="138" cy="711" r="16" fill="#FF775F"/>
    <text x="174" y="706" font-family="JetBrains Mono, monospace" font-size="18" fill="#FFECE5">HIGH: CTA conflict</text>
    <text x="174" y="735" font-family="Inter, Arial" font-size="17" fill="#D7B7AA">3 primary actions compete above the fold</text>
  </g>
</svg>
